<svg width="3178" height="937" fill="none" xmlns="http://www.w3.org/2000/svg"><path fill-rule="evenodd" clip-rule="evenodd" d="M642.191 161.535c8.198 7.96 4.519 17.719-4.577 17.719-273.186-5.536-396.46 106.031-408.08 115.149-5.45 4.635-2.096 11.595 4.351 8.672 153.727-78.257 263.657-85.446 336.718-91.839 73.062-6.392 129.211 1.088 149.837 9.978 11.436 3.864 16.829 13.832 22.084 37.692.369 4.219-2.045 4.43-3.672 3.961-59.333-17.086-153.344-20.743-272.178 4.744-105.12 22.545-189.177 62.486-252.171 119.823a3.99 3.99 0 00-.733 4.987c38.795 65.772 62.782 150.457 71.961 254.054.063.709.283 1.356.703 1.931 23.062 31.55 115.622 111.528 236.952 111.562 81.616.023 149.795-29.414 204.538-88.311 5.502-4.853 9.968-5.244 13.399-1.172 3.43 4.073 3.48 10.077.151 18.015-35.577 71.9-106.737 111.411-193.643 125.673-86.906 14.261-183.951-29.734-233.452-50.475-8.079-3.131-10.444 2.486-4.334 7.597 45.485 37.34 100.699 60.809 165.643 70.405 64.944 9.597 112.997 5.848 144.159-11.247 8.156-4.619 16.868 3.118 8.233 11.658a3.627 3.627 0 01-.524.426c-48.917 32.981-116.248 42.971-201.992 29.97-84.126-12.756-150.197-58.164-213.981-113.802-4.602-4.015-4.602-8.284-5.059-10.398-23.476-108.593-77.952-242.691-163.428-402.294a19.999 19.999 0 01-.527-17.825l.183-.387.88-1.791c29.107-59.009 68.985-107.928 119.635-146.756 43.85-33.615 104.631-56.561 182.343-68.837 4.576-.723 4.551-6.791-.071-7.101-83.619-5.602-154.324 24.192-188.986 37.439l-2.301.875c-11.402 4.458-16.514-8.549-5.514-15.415 274.446-164.258 473.713 17.435 493.453 35.32zM34.511 398.059C93.282 498.414 143.608 627.42 168.48 718.352l.161.669c1.788 7.692.415 11.46-5.612 10.478l-15.086-3.005c-12.624-2.4-20.973-15.422-25.072-27.601l-1.526-4.334c-16.027-45.349-32.438-85.524-49.233-120.528l-1.455-3.018c-17.121-35.321-39.038-74.305-65.75-116.954-7.54-11.721-5.408-22.646-.198-33.895l12.381-24.415c2.803-5.901 12.355-7.204 17.422 2.31zM718.18 288.147a3.98 3.98 0 012.894 2.495c41.439 110.661 42.955 223.29 4.547 337.886a3.986 3.986 0 01-.633 1.181c-32.313 41.521-65.731 67.298-100.253 77.332-2.641.767-5.151-1.43-4.901-4.169 14.839-162.327-6.871-300.512-65.13-414.553-1.235-2.42.222-5.352 2.906-5.77 51.646-8.057 105.169-6.19 160.57 5.598zm-337.764 72.764a2.925 2.925 0 012.21 2.199l11.51 50.65c1.01 4.448 4.542 6.897 9.041 7.836l50.567 10.558a2.915 2.915 0 012.268 3.457 2.936 2.936 0 01-2.266 2.252l-50.613 10.76c-4.487.954-8.01 4.407-9.026 8.846l-11.588 51.651c-.359 1.572-1.936 2.559-3.52 2.205a2.924 2.924 0 01-2.217-2.191l-11.715-51.747c-1.012-4.384-4.475-7.797-8.902-8.773l-48.329-10.651a2.914 2.914 0 01-2.229-3.481 2.939 2.939 0 012.241-2.217l48.312-10.592c4.441-.974 7.923-3.394 8.943-7.79l11.786-50.778c.364-1.571 1.944-2.553 3.527-2.194z" fill="#252F3F"/><path d="M1092.12 714V210h76.32l252.72 379.44V210h76.32v504h-76.32l-252.72-379.44V714h-76.32zm621.42 8.64c-35.04 0-66.24-7.68-93.6-23.04-26.88-15.84-48-37.68-63.36-65.52-15.36-27.84-23.04-60.24-23.04-97.2 0-37.44 7.44-70.32 22.32-98.64 15.36-28.32 36.48-50.4 63.36-66.24 27.36-15.84 59.04-23.76 95.04-23.76 35.04 0 65.52 7.92 91.44 23.76 25.92 15.36 46.08 36 60.48 61.92 14.4 25.92 21.6 54.48 21.6 85.68 0 4.8-.24 10.08-.72 15.84 0 5.28-.24 11.28-.72 18h-277.92c2.4 34.56 13.68 60.96 33.84 79.2 20.64 17.76 44.4 26.64 71.28 26.64 21.6 0 39.6-4.8 54-14.4 14.88-10.08 25.92-23.52 33.12-40.32h76.32c-9.6 33.6-28.8 61.68-57.6 84.24-28.32 22.56-63.6 33.84-105.84 33.84zm0-311.76c-25.44 0-48 7.68-67.68 23.04-19.68 14.88-31.68 37.44-36 67.68h201.6c-1.44-27.84-11.28-49.92-29.52-66.24-18.24-16.32-41.04-24.48-68.4-24.48zm403.91 311.76c-27.84 0-52.56-5.52-74.16-16.56-21.12-11.04-37.92-26.64-50.4-46.8l-7.92 54.72h-68.4V195.6h76.32v216.72c11.52-16.8 27.36-31.68 47.52-44.64 20.16-12.96 46.08-19.44 77.76-19.44 34.56 0 65.04 8.16 91.44 24.48 26.4 16.32 47.04 38.64 61.92 66.96 15.36 28.32 23.04 60.48 23.04 96.48 0 36-7.68 68.16-23.04 96.48-14.88 27.84-35.52 49.92-61.92 66.24-26.4 15.84-57.12 23.76-92.16 23.76zm-12.96-66.24c32.64 0 59.52-11.04 80.64-33.12 21.12-22.56 31.68-51.84 31.68-87.84 0-23.52-4.8-44.4-14.4-62.64-9.6-18.24-22.8-32.4-39.6-42.48-16.8-10.56-36.24-15.84-58.32-15.84-32.64 0-59.52 11.28-80.64 33.84-20.64 22.56-30.96 51.6-30.96 87.12 0 36 10.32 65.28 30.96 87.84 21.12 22.08 48 33.12 80.64 33.12zm353.98 66.24c-43.2 0-77.28-13.44-102.24-40.32-24.48-26.88-36.72-66.96-36.72-120.24v-205.2h76.32v197.28c0 69.12 28.32 103.68 84.96 103.68 28.32 0 51.6-10.08 69.84-30.24 18.24-20.16 27.36-48.96 27.36-86.4V356.88h76.32V714h-67.68l-5.76-62.64c-11.04 22.08-27.36 39.6-48.96 52.56-21.12 12.48-45.6 18.72-73.44 18.72zM2701 714V195.6h76.32V714H2701zm243.53 8.64c-30.24 0-55.2-5.04-74.88-15.12-19.68-10.08-34.32-23.28-43.92-39.6-9.6-16.8-14.4-35.04-14.4-54.72 0-34.56 13.44-61.92 40.32-82.08 26.88-20.16 65.28-30.24 115.2-30.24h93.6v-6.48c0-27.84-7.68-48.72-23.04-62.64-14.88-13.92-34.32-20.88-58.32-20.88-21.12 0-39.6 5.28-55.44 15.84-15.36 10.08-24.72 25.2-28.08 45.36h-76.32c2.4-25.92 11.04-48 25.92-66.24 15.36-18.72 34.56-32.88 57.6-42.48 23.52-10.08 49.2-15.12 77.04-15.12 49.92 0 88.56 13.2 115.92 39.6 27.36 25.92 41.04 61.44 41.04 106.56V714h-66.24l-6.48-61.2c-10.08 19.68-24.72 36.24-43.92 49.68-19.2 13.44-44.4 20.16-75.6 20.16zm15.12-61.92c20.64 0 37.92-4.8 51.84-14.4 14.4-10.08 25.44-23.28 33.12-39.6 8.16-16.32 13.2-34.32 15.12-54h-84.96c-30.24 0-51.84 5.28-64.8 15.84-12.48 10.56-18.72 23.76-18.72 39.6 0 16.32 6 29.28 18 38.88 12.48 9.12 29.28 13.68 50.4 13.68z" fill="#252F3F"/></svg>